<?xml version="1.0" encoding="utf-8"?>
<!-- Generator: Adobe Illustrator 26.2.1, SVG Export Plug-In . SVG Version: 6.00 Build 0)  -->
<svg version="1.1" id="Layer_1" xmlns="http://www.w3.org/2000/svg" xmlns:xlink="http://www.w3.org/1999/xlink" x="0px" y="0px"
	 viewBox="0 0 280 280" style="enable-background:new 0 0 280 280;" xml:space="preserve">
<path d="M102.76,173.69c-0.52-0.12-1.03-0.23-1.55-0.35c-5.72-1.39-10.03-6.06-10.96-11.87c-1.16-7.26,3.57-14.34,10.77-16.05
	c4.01-0.95,7.83-0.46,11.37,1.74c0.1,0.06,0.22,0.11,0.41,0.21c0-3.88,0-7.68,0-11.47c0.52-0.15,5.96-0.19,6.85-0.06
	c0,12.39,0,24.78,0,37.21c-2.26,0-4.48,0-6.8,0c0-0.54,0-1.08,0-1.7c-0.19,0.06-0.29,0.07-0.37,0.12c-1.8,1.1-3.74,1.85-5.84,2.14
	c-0.06,0.01-0.11,0.06-0.17,0.08C105.23,173.69,103.99,173.69,102.76,173.69z M104.81,167.2c4.35-0.01,8.01-3.62,8-7.91
	c0-4.32-3.69-8-8.01-8c-4.42,0-8.12,3.68-8.09,8.04C96.72,163.65,100.39,167.2,104.81,167.2z"/>
<path d="M145.36,173.69c-0.52-0.12-1.03-0.23-1.55-0.36c-5.74-1.41-10.07-6.21-10.89-12.07c-1.09-7.82,4.32-15.02,12.15-16.13
	c3.53-0.5,6.88,0.08,9.94,1.99c0.12,0.07,0.25,0.14,0.46,0.26c0-3.9,0-7.7,0-11.48c0.54-0.15,6.03-0.17,6.76-0.04
	c0,12.37,0,24.75,0,37.13c-0.46,0.13-5.96,0.16-6.74,0.03c0-0.53,0-1.07,0-1.7c-0.22,0.11-0.35,0.17-0.47,0.24
	c-1.71,1.06-3.56,1.73-5.54,2.03c-0.1,0.01-0.19,0.07-0.29,0.11C147.92,173.69,146.64,173.69,145.36,173.69z M147.39,167.2
	c4.41,0.01,8.08-3.56,8.1-7.87c0.01-4.37-3.68-8.04-8.09-8.04c-4.26,0-7.92,3.7-7.92,8C139.47,163.57,143.1,167.19,147.39,167.2z"/>
<path d="M177.22,173.69c-0.54-0.12-1.08-0.24-1.61-0.37c-5.77-1.42-10.17-6.38-10.9-12.29c-0.96-7.69,4.49-14.82,12.18-15.9
	c3.56-0.5,6.92,0.08,9.98,2.05c0.07,0.05,0.15,0.08,0.23,0.11c0.01,0.01,0.04-0.01,0.11-0.04c0-0.63,0-1.28,0-1.92
	c0.49-0.16,6.16-0.2,6.87-0.05c0,9.23,0,18.47,0,27.75c-2.28,0-4.53,0-6.85,0c0-0.57,0-1.11,0-1.74c-0.23,0.12-0.38,0.19-0.52,0.28
	c-1.69,1.04-3.51,1.72-5.48,2c-0.1,0.01-0.2,0.07-0.3,0.1C179.69,173.69,178.45,173.69,177.22,173.69z M179.33,167.2
	c4.33-0.01,7.89-3.58,7.88-7.91c0-4.38-3.63-8.02-7.96-8c-4.31,0.02-7.96,3.71-7.95,8.04C171.32,163.63,174.98,167.21,179.33,167.2z
	"/>
<path d="M70.77,173.69c-0.54-0.12-1.08-0.24-1.61-0.37c-5.73-1.4-10.13-6.32-10.9-12.14c-0.98-7.4,3.88-14.32,11.26-15.88
	c3.84-0.81,7.5-0.25,10.89,1.81c0.11,0.07,0.22,0.12,0.33,0.18c0.01,0.01,0.04-0.01,0.13-0.03c0-0.65,0-1.31,0-2.02
	c2.3,0,4.52,0,6.77,0c0,9.28,0,18.52,0,27.8c-2.24,0-4.45,0-6.75,0c0-0.28,0-0.55,0-0.82c0-0.28,0-0.55,0-0.89
	c-0.17,0.07-0.29,0.1-0.39,0.16c-1.76,1.09-3.66,1.8-5.72,2.09c-0.1,0.01-0.2,0.07-0.3,0.1C73.24,173.69,72.01,173.69,70.77,173.69z
	 M72.77,167.2c4.42,0.01,8.1-3.56,8.11-7.87c0.01-4.35-3.66-8.03-8.04-8.04c-4.36-0.02-8.08,3.66-8.08,8
	C64.76,163.58,68.42,167.19,72.77,167.2z"/>
<path d="M207.16,173.69c-0.64-0.13-1.29-0.24-1.93-0.39c-1.79-0.4-3.45-1.1-4.9-2.23c-2.13-1.66-3.45-4.22-3.49-6.76
	c0.42-0.15,6.34-0.2,7.22-0.05c0.01,0.13,0.03,0.27,0.05,0.41c0.19,1.39,0.89,2.45,2.13,3.08c1.8,0.91,3.71,1.09,5.65,0.52
	c0.86-0.25,1.58-0.74,2.1-1.49c0.85-1.24,0.54-2.52-0.8-3.21c-0.84-0.44-1.77-0.6-2.7-0.75c-2.23-0.36-4.47-0.65-6.64-1.29
	c-0.67-0.2-1.35-0.42-1.98-0.71c-2.8-1.27-4.22-3.52-4.39-6.53c-0.17-3.01,1.11-5.37,3.54-7.11c1.46-1.05,3.12-1.66,4.88-1.95
	c2.82-0.46,5.61-0.39,8.33,0.57c2.74,0.96,4.82,2.69,5.94,5.44c0.35,0.87,0.58,1.78,0.63,2.71c-0.44,0.16-5.67,0.21-6.92,0.08
	c-0.04-0.21-0.08-0.43-0.11-0.66c-0.27-1.74-1.16-2.66-2.88-2.96c-1.36-0.24-2.72-0.2-4.06,0.12c-0.47,0.11-0.95,0.3-1.34,0.57
	c-1.25,0.85-1.23,2.5,0.05,3.29c0.53,0.33,1.15,0.59,1.76,0.73c1.54,0.35,3.09,0.62,4.64,0.9c1.57,0.29,3.15,0.57,4.64,1.16
	c1.24,0.49,2.38,1.15,3.32,2.11c1.04,1.06,1.77,2.28,1.9,3.81c0.01,0.08,0.07,0.15,0.1,0.22c0,0.64,0,1.28,0,1.92
	c-0.07,0.39-0.12,0.79-0.2,1.18c-0.51,2.41-1.85,4.22-3.97,5.46c-1.4,0.82-2.92,1.28-4.51,1.55c-0.44,0.08-0.87,0.17-1.3,0.25
	C210.31,173.69,208.73,173.69,207.16,173.69z"/>
<path d="M131.66,77.24c8.08-4.64,16.09-9.24,24.18-13.89c13.94,24.11,27.87,48.2,41.84,72.36c-0.23,0.03-0.37,0.06-0.5,0.06
	c-10.45,0-20.9,0-31.34,0.01c-0.45,0-0.63-0.22-0.82-0.55c-3.27-5.69-6.54-11.38-9.82-17.07c-7.72-13.41-15.44-26.83-23.15-40.24
	C131.92,77.72,131.81,77.51,131.66,77.24z"/>
<path d="M103.99,102.71c8.07-4.66,16.1-9.29,24.18-13.95c9.03,15.65,18.04,31.25,27.06,46.87c-0.23,0.22-0.47,0.13-0.69,0.13
	c-2.9,0.01-5.8,0-8.7,0c-5.01,0-10.02,0-15.03,0c-0.25,0-0.5,0-0.81,0c0,2.3,0,4.53,0,6.74c-0.51,0.16-5.69,0.21-6.88,0.08
	c-0.01-0.21-0.03-0.43-0.03-0.66c0-1.85-0.01-3.71,0.01-5.56c0-0.45-0.11-0.82-0.33-1.2c-6.11-10.53-12.2-21.06-18.3-31.59
	C104.33,103.31,104.19,103.05,103.99,102.71z"/>
<path d="M99.82,113.57c4.27,7.41,8.5,14.74,12.78,22.16c-0.33,0.01-0.54,0.03-0.74,0.03c-10.29,0-20.59,0-30.88,0.01
	c-0.5,0-0.76-0.17-0.99-0.59c-1.32-2.36-2.68-4.7-4.02-7.05c-0.1-0.18-0.2-0.37-0.31-0.59C83.71,122.89,91.72,118.26,99.82,113.57z"
	/>
<path d="M129.95,173.04c-2.29,0-4.54,0-6.82,0c0-9.26,0-18.48,0-27.75c2.28,0,4.52,0,6.82,0
	C129.95,154.53,129.95,163.75,129.95,173.04z"/>
</svg>
